<svg width="80" height="100" viewBox="0 0 80 100" fill="none" xmlns="http://www.w3.org/2000/svg">
<path d="M74.0244 99.9057L38.6261 100.001C37.1286 100.005 35.7275 99.3726 34.894 98.3161L0.779809 53.0025C-1.214 50.4616 0.827667 46.9489 4.49869 46.9489L38.314 46.1044C39.8351 46.0639 41.276 46.6839 42.1426 47.7485L77.6954 93.95C79.7378 96.468 77.6211 99.8954 74.0244 99.9057Z" fill="url(#paint0_linear_6924_59377)"/>
<path d="M75.0969 52.873L40.0793 52.9665C38.5979 52.9709 37.2115 52.3495 36.3869 51.3114L2.63864 6.78193C0.666178 4.28524 2.68576 0.832888 6.31997 0.832888L39.7686 0.00164278C41.2735 -0.0359068 42.7011 0.57225 43.553 1.62143L78.7267 47.0226C80.7441 49.495 78.6538 52.8656 75.0969 52.873Z" fill="url(#paint1_linear_6924_59377)"/>
<defs>
<linearGradient id="paint0_linear_6924_59377" x1="27.2435" y1="94.2327" x2="51.231" y2="52.6852" gradientUnits="userSpaceOnUse">
<stop stop-color="#FF8000"/>
<stop offset="1" stop-color="#FAC20D"/>
</linearGradient>
<linearGradient id="paint1_linear_6924_59377" x1="28.891" y1="47.3075" x2="52.4714" y2="6.46533" gradientUnits="userSpaceOnUse">
<stop stop-color="#FF8000"/>
<stop offset="0.9999" stop-color="#FAC20D"/>
</linearGradient>
</defs>
</svg>
